<svg preserveAspectRatio="xMidYMid meet" data-bbox="0 0 1117 459" xmlns="http://www.w3.org/2000/svg" viewBox="0 0 1117 459" height="459" width="1117" data-type="color" role="presentation" aria-hidden="true" aria-label="">
    <g>
        <path fill="transparent" d="M1117 0v459H0V0h1117z" data-color="1"></path>
        <path fill="#20C997" d="M44.264 328 70.76 178.24H40.52l9.216-51.84h112.32l-9.216 51.84H122.6L96.104 328h-51.84Zm93.645 0 35.712-201.6h109.152l-9.216 51.84h-57.312l-4.608 25.344h46.08l-8.064 46.944h-46.08l-4.608 25.632h57.312L247.061 328H137.909Zm114.862 0 66.241-201.6h74.88L388.708 328h-54.72l3.456-40.32h-19.008L307.492 328h-54.721Zm77.761-86.4h10.944l4.896-59.04-15.84 59.04Zm66.971 86.4 35.712-201.6h74.304l-6.336 104.256L531.999 126.4h74.016L570.303 328h-51.84l22.176-125.28L502.623 328h-37.44l6.336-125.28L449.343 328h-51.84Zm182.925 0 66.24-201.6h74.88L716.364 328h-54.72l3.456-40.32h-19.008L635.148 328h-54.72Zm77.76-86.4h10.944l4.896-59.04-15.84 59.04Zm77.107 86.4 26.496-149.76h-30.24l9.216-51.84h112.32l-9.216 51.84h-30.24L787.135 328h-51.84Zm93.645 0 35.712-201.6h51.84L880.78 328h-51.84Zm61.988 0 63.36-104.832-24.192-96.768h57.6l4.896 47.808 21.888-47.808h57.6l-58.46 96.768L1039.82 328h-57.596l-6.624-56.448L948.528 328h-57.6Z" data-color="2"></path>
    </g>
</svg>